Coordinates
version=1
nRows=21
nColumns=22
inDegrees=yes

Units are S.I. units (second, meters, Newtons, ...)
If the header above contains a line with 'inDegrees', this indicates whether rotational values are in degrees (yes) or radians (no).

endheader
time	pelvis_tilt	pelvis_list	pelvis_rotation	pelvis_tx	pelvis_ty	pelvis_tz	hip_flexion_r	hip_adduction_r	hip_rotation_r	knee_angle_r	ankle_angle_r	subtalar_angle_r	hip_flexion_l	hip_adduction_l	hip_rotation_l	knee_angle_l	ankle_angle_l	subtalar_angle_l	lumbar_extension	lumbar_bending	lumbar_rotation
      0.01000000	    -14.09105838	     -1.66977440	     -5.70264522	     -0.58994221	      0.97799839	      0.39928936	     20.55096822	      4.47262598	     -2.49174353	    -16.30409112	     15.16859691	     -7.80147653	     21.22254477	     -2.51734070	     -5.09573137	    -18.42798585	     18.24162407	     -1.94968574	      7.45252365	      3.56615258	      3.83858690
      0.02000000	    -14.08776916	     -1.68954654	     -5.70012438	     -0.58997573	      0.97799610	      0.39926302	     20.54463179	      4.49238024	     -2.47904636	    -16.29728794	     15.13899468	     -7.78548690	     21.23554218	     -2.53864904	     -5.10605359	    -18.45731896	     18.25022206	     -1.95475410	      7.44332000	      3.59847697	      3.81203851
      0.03000000	    -14.08553497	     -1.68996968	     -5.69807616	     -0.58996930	      0.97799373	      0.39923490	     20.54294248	      4.49058615	     -2.47830815	    -16.29918025	     15.13909034	     -7.78491538	     21.23397028	     -2.53688420	     -5.10588104	    -18.45876638	     18.25125043	     -1.95491397	      7.44798218	      3.60526447	      3.81435416
      0.04000000	    -14.08297491	     -1.68942715	     -5.69940651	     -0.58997148	      0.97799246	      0.39920769	     20.54262995	      4.48838791	     -2.47719134	    -16.30211198	     15.13950745	     -7.78436100	     21.23267353	     -2.53457278	     -5.10516811	    -18.46086119	     18.25252162	     -1.95514004	      7.45057139	      3.61344014	      3.81506657
      0.05000000	    -14.08011026	     -1.68848767	     -5.70174064	     -0.58996929	      0.97799373	      0.39918419	     20.54283905	      4.48653773	     -2.47579638	    -16.30677138	     15.14011716	     -7.78384183	     21.23080997	     -2.53236493	     -5.10418367	    -18.46411044	     18.25384893	     -1.95542846	      7.45278708	      3.62070143	      3.81493699
      0.06000000	    -14.07667654	     -1.68717289	     -5.70480980	     -0.58996599	      0.97799556	      0.39916269	     20.54326779	      4.48437772	     -2.47431699	    -16.31321786	     15.14101909	     -7.78332150	     21.22879036	     -2.52993863	     -5.10296673	    -18.46844790	     18.25534584	     -1.95578258	      7.45481220	      3.62773203	      3.81442093
      0.07000000	    -14.07286218	     -1.68560729	     -5.70811217	     -0.58995954	      0.97799786	      0.39914186	     20.54406909	      4.48196719	     -2.47276530	    -16.32160925	     15.14235471	     -7.78278243	     21.22659554	     -2.52723840	     -5.10159146	    -18.47386441	     18.25716373	     -1.95621746	      7.45638916	      3.63434167	      3.81367716
      0.08000000	    -14.06495415	     -1.68335598	     -5.71395325	     -0.58999160	      0.97799620	      0.39912706	     20.55576755	      4.47932895	     -2.46872847	    -16.35575167	     15.15216926	     -7.77998778	     21.22637086	     -2.52487316	     -5.09880352	    -18.48741133	     18.26767065	     -1.95879032	      7.44282307	      3.63851142	      3.81134939
      0.09000000	    -14.06239335	     -1.68211650	     -5.71458503	     -0.58996386	      0.97799832	      0.39910671	     20.55416971	      4.47679455	     -2.46819191	    -16.35987890	     15.15329497	     -7.77967791	     21.22369831	     -2.52202205	     -5.09891050	    -18.49146676	     18.26845161	     -1.95908941	      7.44830892	      3.64307805	      3.81176625
      0.10000000	    -14.05992608	     -1.68045867	     -5.71681852	     -0.58993968	      0.97799870	      0.39908249	     20.55380508	      4.47356820	     -2.46659858	    -16.36576640	     15.15462480	     -7.77949340	     21.22147211	     -2.51885959	     -5.09853516	    -18.49593677	     18.26963299	     -1.95941437	      7.45134064	      3.64878587	      3.81110453
      0.11000000	    -14.05407424	     -1.67695740	     -5.72406411	     -0.58995591	      0.97799552	      0.39906419	     20.56484675	      4.47027654	     -2.45529922	    -16.39666873	     15.16361277	     -7.77884447	     21.22101455	     -2.51515896	     -5.09824405	    -18.50660955	     18.27861773	     -1.96167926	      7.43965752	      3.65242111	      3.80557773
      0.12000000	    -14.05234455	     -1.67614910	     -5.72494617	     -0.58992243	      0.97799516	      0.39904467	     20.56367688	      4.46808284	     -2.45325072	    -16.40171369	     15.16468508	     -7.77881898	     21.21883430	     -2.51299378	     -5.09874619	    -18.51003260	     18.27956029	     -1.96204964	      7.44357434	      3.65616483	      3.80619699
      0.13000000	    -14.04839509	     -1.67282142	     -5.73651394	     -0.58993563	      0.97799050	      0.39903517	     20.57510520	      4.46712087	     -2.43494237	    -16.43029530	     15.17226130	     -7.77915128	     21.21801159	     -2.51133582	     -5.10388341	    -18.51780431	     18.28816324	     -1.96508669	      7.43279307	      3.65908039	      3.80646853
      0.14000000	    -14.04899755	     -1.67283458	     -5.73694008	     -0.58991688	      0.97798832	      0.39902757	     20.57473915	      4.46671449	     -2.43468412	    -16.43076989	     15.17230886	     -7.77916410	     21.21787102	     -2.51119510	     -5.10396513	    -18.51809029	     18.28822282	     -1.96512702	      7.43277341	      3.65944963	      3.80656072
      0.15000000	    -14.04798048	     -1.67035474	     -5.74517365	     -0.58989318	      0.97798686	      0.39899610	     20.57538187	      4.46308553	     -2.42936271	    -16.43659174	     15.17257213	     -7.77947507	     21.21612229	     -2.50759974	     -5.10480352	    -18.52241789	     18.28923256	     -1.96569276	      7.43375585	      3.66860533	      3.80667859
      0.16000000	    -14.04728028	     -1.66976621	     -5.76657001	     -0.58992374	      0.97797611	      0.39901571	     20.59255268	      4.47090465	     -2.38859258	    -16.47063989	     15.17325007	     -7.78150867	     21.21739430	     -2.51405852	     -5.11965058	    -18.52961669	     18.29789830	     -1.97073485	      7.42198849	      3.67341492	      3.81593661
      0.17000000	    -14.05005752	     -1.66790311	     -5.77406966	     -0.58992557	      0.97796978	      0.39900390	     20.59469160	      4.46948451	     -2.38682929	    -16.46762673	     15.17389074	     -7.78186571	     21.21975759	     -2.51324294	     -5.12253195	    -18.52972139	     18.29896493	     -1.97147375	      7.41944309	      3.67677382	      3.81836338
      0.18000000	    -14.05121536	     -1.66825144	     -5.77481249	     -0.58991193	      0.97796475	      0.39899598	     20.59438570	      4.46934205	     -2.38644971	    -16.46790584	     15.17389065	     -7.78191062	     21.21979580	     -2.51313319	     -5.12279888	    -18.52987515	     18.29905866	     -1.97154631	      7.41916129	      3.67690855	      3.81851088
      0.19000000	    -14.07148296	     -1.67246902	     -5.81722510	     -0.58993621	      0.97792302	      0.39904775	     20.62282742	      4.49244981	     -2.32063687	    -16.48068627	     15.17241654	     -7.78891667	     21.23974325	     -2.53632102	     -5.16917675	    -18.53635019	     18.31697246	     -1.98381094	      7.43481229	      3.69651442	      3.84829751
      0.20000000	    -14.07469377	     -1.67069356	     -5.82271065	     -0.58993415	      0.97791477	      0.39903577	     20.62436742	      4.49109627	     -2.32225938	    -16.47578226	     15.17213839	     -7.78921566	     21.24254741	     -2.53472093	     -5.17018069	    -18.53736634	     18.31746737	     -1.98425650	      7.43346829	      3.69819008	      3.84908249
      0.21000000	    -14.07903517	     -1.66962704	     -5.82859827	     -0.58992588	      0.97790438	      0.39902835	     20.62588804	      4.49063608	     -2.32349480	    -16.47015107	     15.17201045	     -7.78964138	     21.24577962	     -2.53483316	     -5.17203877	    -18.53758243	     18.31849915	     -1.98490175	      7.43434930	      3.70007599	      3.84868570
